<?xml version="1.0" encoding="utf-8"?>
<!-- Generator: Adobe Illustrator 23.1.0, SVG Export Plug-In . SVG Version: 6.00 Build 0)  -->
<svg version="1.1" id="Capa_1" xmlns="http://www.w3.org/2000/svg" xmlns:xlink="http://www.w3.org/1999/xlink" x="0px" y="0px"
	 viewBox="0 0 482.08 482.08" style="enable-background:new 0 0 482.08 482.08;" xml:space="preserve">
<style type="text/css">
	.st0{fill:#010101;}
</style>
<g>
	<path class="st0" d="M181.31,457.88c-7.92,0.41-11.39-3.45-11.39-3.45l-39.39-39.38l82.06-87.76l-88.37,81.44l-72.3-72.29
		l37.17-42.04l-43.66,35.55l-11.28-11.29c0,0-6.8-5.6-6.18-13.42c0.61-7.81,4.89-12.27,4.89-12.27l106.57-106.57l160.14,160.15
		L192.18,453.91C192.17,453.91,189.23,457.48,181.31,457.88L181.31,457.88z"/>
	<path class="st0" d="M172.75,153.65l160.14,160.14l-22.4,22.4L150.35,176.05L172.75,153.65z"/>
	<path class="st0" d="M320.17,207.77c0.48-19.62,44.5-14.22,67.29-37.01c22.79-22.79,64.85-78.14,65.59-84.63
		c0.73-6.49,5.32-22.9-11.73-40.57c-17.07-17.68-41.48-12.65-41.48-12.65s-58.07,38.05-86.11,66.07
		c-25.27,25.28-14.89,68.44-32.62,68.75c-17.73,0.31-70.58-52.43-82.29-40.73c-11.71,11.69-18.1,18.09-18.1,18.09l160.13,160.15
		c0,0,2.09-2.07,18.11-18.09C374.98,271.11,319.68,227.38,320.17,207.77L320.17,207.77z"/>
</g>
</svg>
