<?xml version="1.0" encoding="utf-8"?>
<!-- Generator: Adobe Illustrator 23.1.0, SVG Export Plug-In . SVG Version: 6.00 Build 0)  -->
<svg version="1.1" id="Capa_1" xmlns="http://www.w3.org/2000/svg" xmlns:xlink="http://www.w3.org/1999/xlink" x="0px" y="0px"
	 viewBox="0 0 880.72 923.92" style="enable-background:new 0 0 880.72 923.92;" xml:space="preserve">
<style type="text/css">
	.st0{fill:#A8A8A8;}
</style>
<g>
	<path class="st0" d="M735.82,675.38c1.08-38.83,2.17-76.46,3.17-114.08c1.22-45.97,2.4-91.94,3.45-137.91
		c0.09-4.12,1.47-7.19,4.09-10.27c18.12-21.3,36.1-42.73,54.11-64.12c4.26-5.06,6.03-10.93,5.97-17.53
		c-0.11-14.83,0.03-29.66-0.06-44.49c-0.1-17.19-10.91-27.85-28.27-27.9c-22-0.06-43.99-0.05-65.99-0.05
		c-49.66,0-99.32,0.03-148.98,0c-17.43-0.01-28.55,11.54-28.25,28.98c0.25,14.33,0.19,28.66,0,42.99
		c-0.1,7.56,2.39,13.86,7.26,19.58c18.12,21.31,36.21,42.65,54,64.23c1.95,2.37,2.68,6.32,2.77,9.57
		c1.63,57.63,3.06,115.26,4.57,172.88c1.21,46.14,2.47,92.27,3.7,138.41c0.4,15.16,0.88,30.31,1.04,45.47
		c0.02,1.89-1.16,4.65-2.66,5.57c-39.66,24.21-81.46,43.64-126.78,54.58c-32.53,7.85-65.2,8.76-97.55-1.44
		c-11.83-3.73-22.88-9.16-32.17-17.55c-18.96-17.13-23.53-37.08-14.31-60.96c6.64-17.19,18.33-30.71,31.15-43.47
		c7.66-7.63,15.58-15.05,22.67-23.19c16.32-18.76,20.88-40.45,12.3-63.76c-8.57-23.28-26-37.24-50.61-40.64
		c-20.24-2.8-38.14,3.43-52.88,17.92c-20.55,20.21-40.69,40.84-61.73,60.52c-20.27,18.96-42.67,35.1-69.09,44.73
		c-29.26,10.67-57.24,9.34-82.51-10.51c-17.88-14.04-29.31-32.99-37.9-53.68c-10.44-25.15-16.38-51.49-20.14-78.4
		c-3.78-27-4.61-54.08-2.69-81.23c2.51-35.62,9.34-70.45,20.23-104.46c21.91-68.44,57.2-129.3,104.26-183.48
		c36.3-41.8,77.95-77.31,125.05-106.37C324,63.88,378.69,41.66,437.6,30.34c45.8-8.79,91.82-10.43,138.07-3.54
		c53.53,7.97,102.82,26.7,146.93,58.19c55.22,39.42,93.39,91.73,115.68,155.67c15.12,43.37,21.28,88.19,19.68,133.97
		c-2.5,71.83-21.88,139.18-55.22,202.66c-16.38,31.2-35.83,60.38-58.06,87.7C742.09,668.19,739.35,671.26,735.82,675.38z
		 M150.12,406.43c-35.27-0.03-64.66,29.33-64.01,64.54c0.66,35.35,29.39,64.35,64.58,63.81c37.59-0.58,64.51-31.84,63.73-66.23
		C213.68,435.03,184.33,406.2,150.12,406.43z M519.48,201.04c0.07-35.55-28.27-63.96-63.82-64.23
		c-36.58-0.28-64.05,29.66-64.31,63.28c-0.28,35.82,28.42,64.79,63.9,64.86C490.72,265.02,519.41,236.48,519.48,201.04z
		 M254.23,349.37c35.68-1.14,63.9-31.67,61.77-67.33c-2.14-35.84-32.76-63.06-67.3-60.88c-36.44,2.3-64.06,33.96-60.57,71.42
		C191.08,324.16,222.3,351.61,254.23,349.37z M437.22,515.23c-0.15,22.57,18.44,41.31,41.09,41.41
		c22.62,0.09,41.27-18.31,41.6-41.04c0.32-22.6-18.17-41.54-40.69-41.69C455.65,473.75,437.38,491.73,437.22,515.23z"/>
	<path class="st0" d="M623.19,482.04c31.69,0,63.62,0,95.5,0c0,9.44,0.19,18.7-0.03,27.95c-1.16,47.8-2.4,95.59-3.67,143.39
		c-1.63,61.59-3.28,123.19-4.96,184.78c-0.51,18.82-1.13,37.63-1.71,56.44c-0.18,5.7-1.14,6.74-6.77,6.76
		c-20.49,0.05-40.99,0.05-61.48-0.01c-5.75-0.02-6.62-1.03-6.78-6.73c-0.92-32.47-1.92-64.94-2.77-97.41
		c-1.19-45.28-2.24-90.57-3.41-135.85c-1.27-49.29-2.65-98.58-3.88-147.88C622.97,503.18,623.19,492.88,623.19,482.04z"/>
	<path class="st0" d="M671.04,280.87c35.64,0,71.29-0.01,106.93,0c6.33,0,7.26,0.93,7.27,7.16c0.01,13.99,0.13,27.99-0.12,41.97
		c-0.04,2.4-1.1,5.25-2.63,7.1c-17.02,20.47-34.26,40.76-51.33,61.19c-2.6,3.11-5.19,4.69-9.59,4.66
		c-34.14-0.23-68.28-0.15-102.41-0.05c-3.24,0.01-5.51-0.8-7.67-3.38c-17.49-20.95-35.16-41.74-52.62-62.72
		c-1.44-1.73-2.33-4.44-2.36-6.72c-0.22-13.99-0.13-27.98-0.12-41.97c0.01-6.21,1.05-7.26,7.21-7.26
		c35.81-0.01,71.62-0.01,107.43-0.01C671.04,280.85,671.04,280.86,671.04,280.87z"/>
	<path class="st0" d="M720.26,424.46c0,12.12,0,23.55,0,35.34c-33.03,0-65.7,0-99.06,0c0-11.71,0-23.3,0-35.34
		C653.81,424.46,686.94,424.46,720.26,424.46z"/>
</g>
</svg>
