<?xml version="1.0" encoding="utf-8"?>
<!-- Generator: Adobe Illustrator 23.1.0, SVG Export Plug-In . SVG Version: 6.00 Build 0)  -->
<svg version="1.1" id="Capa_1" xmlns="http://www.w3.org/2000/svg" xmlns:xlink="http://www.w3.org/1999/xlink" x="0px" y="0px"
	 viewBox="0 0 727.92 805.68" style="enable-background:new 0 0 727.92 805.68;" xml:space="preserve">
<style type="text/css">
	.st0{fill:#D8D8D8;}
</style>
<g>
	<path class="st0" d="M12.94,385.72c0-98.31,0.03-196.63-0.03-294.94c-0.01-16.52,4.23-31.54,14.64-44.56
		c13.3-16.63,30.73-25.4,51.92-25.51c52.49-0.28,104.99-0.1,157.48-0.1c109.96,0,219.93,0.19,329.89-0.1
		c40.72-0.11,69.27,32.69,69.12,68.59c-0.48,113.15-0.17,226.3-0.16,339.45c0,9-0.14,18,0.2,26.99c0.08,2.09,1.33,4.83,2.95,6.07
		c41.94,32.1,67,74.2,72.51,126.71c9.46,90.13-46.8,169.26-129.02,192.78c-57.17,16.36-110.28,6.55-158.82-27.95
		c-1.99-1.42-4.79-2.42-7.21-2.42c-106.65-0.15-213.3-0.12-319.95-0.29c-10.77-0.02-21.84,0.31-32.24-1.95
		c-29.78-6.47-50.97-33.37-51.2-63.88c-0.21-27.49,0.22-54.98,0.2-82.47c-0.04-48.15-0.22-96.3-0.3-144.44
		C12.9,433.71,12.94,409.71,12.94,385.72z M351.81,582.5c-3.14,0-6.11,0-9.07,0c-27.33,0-54.67,0.02-82-0.02
		c-6.71-0.01-10.78-3.61-11.13-9.55c-0.37-6.25,3.44-10.44,10.18-11.17c0.99-0.11,2-0.1,3-0.1c28.17,0.01,56.33,0.03,84.5,0.04
		c3.11,0,6.21,0,8.95,0c16.17-55.94,49.68-96.52,102.34-119.75c52.52-23.17,105.06-20.19,156.68,4.62c0-34.25-0.01-68.08,0-101.9
		c0.02-85.16,0.07-170.31,0.05-255.47c0-23.49-13.88-41.59-36.52-46.62c-7.14-1.59-14.76-1.27-22.17-1.28
		c-58.83-0.09-117.66,0.02-176.5-0.08c-32.24-0.05-64.47-0.5-96.7-0.57c-15.73-0.03-31.46,0.49-47.19,0.57c-21,0.11-42,0.01-63,0.03
		c-31.5,0.02-63-0.39-94.48,0.22c-25.52,0.49-45.09,21.18-45.13,46.57c-0.09,49.66-0.07,99.33-0.06,148.99
		c0.03,118.78,0.08,237.57,0.12,356.35c0.01,29.33-0.05,58.67,0,88c0.05,28.57,19.46,48.62,48.05,48.94
		c33.99,0.37,67.99,0.16,101.99,0.16c63.5,0,126.99-0.03,190.49-0.04c7.73,0,15.46,0,24.3,0c-13.36-14.55-23.44-29.92-31.31-46.71
		c-7.85-16.77-12.6-34.5-15.42-53.08c-30.33,0-60.11,0.06-89.88-0.09c-2.79-0.01-5.96-0.67-8.26-2.12
		c-4.01-2.54-4.57-6.98-3.18-11.16c1.52-4.57,5.19-6.56,10.08-6.57c28.16-0.04,56.32-0.17,84.48-0.27c1.76-0.01,3.52,0,5.3,0
		C350.82,600.79,351.3,591.89,351.81,582.5z M531.8,767.98c88.42,0,163.05-72.9,160.04-166.11
		c-2.69-83.38-70.93-155.19-161.36-154.73c-89.78,0.45-160.74,73.76-159.44,163.83C372.3,697.48,445.57,769.04,531.8,767.98z"/>
	<path class="st0" d="M84.34,392.83c0.68-41.14,33.3-72.78,73.98-72.42c34.81,0.31,73.08,28.6,71.04,77.03
		c-1.56,37.08-33.57,69.38-75.41,68.16C115.95,464.49,83.71,431.13,84.34,392.83z M208.92,393.03
		c-0.03-28.72-23.43-52.15-52.06-52.13c-28.33,0.02-52.1,23.98-52,52.4c0.11,28.4,23.5,51.34,52.29,51.27
		C186.09,444.5,208.95,421.73,208.92,393.03z"/>
	<path class="st0" d="M157.09,262.19c-40.21,0-72.71-32.44-72.74-72.61c-0.03-40.02,32.56-72.53,72.82-72.63
		c39.68-0.1,72.33,32.53,72.5,72.43C229.84,229.43,197.19,262.18,157.09,262.19z M156.96,240.94c29.04,0,51.91-22.31,51.96-50.69
		c0.05-29.26-22.99-52.66-51.89-52.68c-28.47-0.02-52.18,23.67-52.16,52.13C104.89,218.35,127.86,240.94,156.96,240.94z"/>
	<path class="st0" d="M84.34,595.74c1.23-41.63,34.39-73.24,75.48-71.96c38.91,1.21,70.82,34.81,69.88,73.56
		c-0.99,40.78-34.31,72.86-74.27,71.52C115.03,667.51,83.18,634.75,84.34,595.74z M156.96,544.48c-28.56,0-52.11,23.55-52.09,52.11
		c0.01,28.09,23.8,51.85,51.93,51.88c28.91,0.03,52.14-23.36,52.12-52.5C208.9,567.63,185.55,544.49,156.96,544.48z"/>
	<path class="st0" d="M394.72,358.53c44.15,0.01,88.29,0,132.44,0.01c7.57,0,11.87,3.84,11.78,10.4c-0.07,5.26-3.43,9.17-8.67,9.91
		c-1.64,0.23-3.32,0.19-4.98,0.19c-64.64,0.01-129.27,0.01-193.91,0.01c-23.32,0-46.64-0.03-69.95-0.01
		c-4.19,0-8.04-0.66-10.18-4.81c-4.33-8.38,0.32-15.69,10.04-15.7C305.76,358.51,350.24,358.52,394.72,358.53z"/>
	<path class="st0" d="M394.39,175.6c-44.49,0.01-88.98,0.01-133.46,0c-5.97,0-9.93-2.69-11.06-7.35c-1.23-5.06,0.6-9.72,5.04-11.84
		c1.72-0.82,3.83-1.19,5.76-1.19c64.98-0.03,129.96,0.01,194.94,0.02c23.99,0,47.99-0.07,71.98-0.08c9,0,14.2,7.72,10.24,15.14
		c-2.35,4.41-6.33,5.35-10.97,5.34c-34.99-0.07-69.98-0.04-104.97-0.04C412.71,175.6,403.55,175.6,394.39,175.6z"/>
	<path class="st0" d="M369.12,223.94c-35.98,0-71.95,0.01-107.93-0.01c-7.18,0-10.93-3.01-11.47-9.01
		c-0.61-6.72,3.42-11.26,10.17-11.27c48.63-0.04,97.27-0.04,145.9-0.05c24.15-0.01,48.3,0.01,72.45-0.03
		c4.44-0.01,7.77,1.74,9.65,5.75c1.76,3.75,1.79,7.82-1.22,10.67c-2.09,1.98-5.38,3.75-8.15,3.77c-29.15,0.26-58.29,0.15-87.44,0.14
		c-7.33,0-14.65,0-21.98,0C369.12,223.91,369.12,223.92,369.12,223.94z"/>
	<path class="st0" d="M341.89,427.53c-26.82,0-53.65,0.02-80.47-0.01c-6.35-0.01-10.43-2.68-11.55-7.4
		c-1.66-6.95,2.54-12.75,9.72-13.22c3.15-0.21,6.33-0.06,9.49-0.06c50.81,0,101.63,0.01,152.44-0.02c5.13,0,9.76,0.85,12.05,6.1
		c3.21,7.39-1.75,14.54-10.2,14.58c-19.83,0.09-39.65,0.03-59.48,0.03C356.55,427.53,349.22,427.53,341.89,427.53z"/>
	<path class="st0" d="M541.73,617.67c0,16.3-0.01,31.79,0.01,47.27c0.01,10.49,0.21,20.98,0.06,31.46
		c-0.09,6.55-4.61,10.59-10.92,10.28c-6.21-0.31-9.39-4.62-9.34-11.51c0.09-12.77-0.26-25.54-0.32-38.31
		c-0.07-12.82-0.01-25.63-0.01-39.19c-2.09,0-3.84,0-5.6,0c-24.33,0-48.65-0.03-72.98,0.02c-4.53,0.01-7.75-1.98-9.47-5.99
		c-1.8-4.2-1.28-8.59,2.29-11.4c2.24-1.76,5.71-2.69,8.64-2.72c23.82-0.21,47.65-0.12,71.48-0.12c1.64,0,3.28,0,5.77,0
		c0-8.25,0.01-16.16,0-24.08c-0.03-17.82-0.14-35.64-0.1-53.46c0.01-7.14,4.1-11.58,10.27-11.58c6.47,0,10.36,4.49,10.35,11.98
		c-0.02,24.33-0.05,48.65-0.06,72.98c0,1.15,0.14,2.31,0.23,3.71c0.99,0.18,1.92,0.51,2.86,0.51c23.14,0,46.28-0.04,69.41-0.04
		c2.33,0,4.66,0.12,6.98,0.27c6.03,0.4,9.61,4.12,9.57,9.88c-0.05,5.77-4.14,9.99-10.15,10.01c-24.3,0.07-48.6,0.03-72.9,0.04
		C546,617.67,544.2,617.67,541.73,617.67z"/>
	<path class="st0" d="M150.56,406.55c10.03-9.99,19.56-19.49,29.11-28.99c1.77-1.76,3.47-3.63,5.42-5.16
		c4.2-3.29,10.06-2.96,13.69,0.58c3.89,3.78,4.39,9.71,0.63,13.97c-4.07,4.61-8.61,8.8-12.95,13.16
		c-8.81,8.85-17.59,17.72-26.45,26.52c-6.65,6.6-11.8,6.56-18.39,0c-8.14-8.1-16.28-16.21-24.39-24.35
		c-6.2-6.22-6.89-12.1-2.05-16.91c4.53-4.51,10.65-3.78,16.52,2.08C137.93,393.69,144.09,399.99,150.56,406.55z"/>
	<path class="st0" d="M150.81,203.49c11.32-11.44,21.93-22.23,32.62-32.94c4.48-4.49,9.43-5.14,13.85-2.07
		c5.41,3.76,6.44,10.74,1.73,15.53c-13.64,13.89-27.44,27.61-41.31,41.26c-3.8,3.73-9.73,3.9-13.56,0.2
		c-10.04-9.71-19.95-19.57-29.62-29.65c-3.89-4.05-3.23-10.21,0.68-13.98c3.83-3.7,10.46-3.77,14.47,0.18
		C136.63,188.9,143.41,195.96,150.81,203.49z"/>
	<path class="st0" d="M150.89,609.89c11-11.01,21.77-21.85,32.62-32.62c4.71-4.67,10.9-4.99,15.14-0.99
		c4.07,3.84,4.62,10.22,0.56,14.35c-13.77,14.02-27.68,27.89-41.71,41.65c-3.83,3.75-9.99,3.35-13.95-0.54
		c-9.49-9.34-18.93-18.74-28.27-28.24c-4.44-4.52-4.37-10.54-0.16-14.67c4.23-4.16,10.2-4.2,14.72,0.19
		C136.79,595.73,143.57,602.61,150.89,609.89z"/>
</g>
</svg>
