<?xml version="1.0" encoding="utf-8"?>
<!-- Generator: Adobe Illustrator 23.1.0, SVG Export Plug-In . SVG Version: 6.00 Build 0)  -->
<svg version="1.1" id="Capa_1" xmlns="http://www.w3.org/2000/svg" xmlns:xlink="http://www.w3.org/1999/xlink" x="0px" y="0px"
	 viewBox="0 0 880.72 923.92" style="enable-background:new 0 0 880.72 923.92;" xml:space="preserve">
<style type="text/css">
	.st0{fill:#A8A8A8;}
</style>
<g>
	<path class="st0" d="M21.6,451.36c16.11-52.15,64.01-77.47,95.89-117.13c13.79,20.41,26.3,38.93,40.73,60.27
		c-16.72,16.3-34.43,34.55-53.25,51.57c-11.31,10.23-14.01,21.4-11.41,35.86c7.01,39.02,26.98,71.63,50.61,102.03
		c51.5,66.24,111.69,123.18,185.56,164.02c20.15,11.14,42.32,18.83,64.05,26.79c10.37,3.8,20.51,3.42,30.12-6.28
		c76.95-77.65,154.49-154.71,231.83-231.99c1.99-1.99,3.62-4.33,3.62-4.33c-141.4-71.93-247.08-178.23-318.49-316.74
		c-41.33,41.47-85.05,85.34-130.32,130.76c36.7,46.06,87.42,75.82,143.49,97.7c34.74-35.26,81.47-27.99,94.51,14.11
		c8.28,26.72-6.38,54.77-33.49,64.04c-26.03,8.91-55.51-3.98-63.85-29.99c-3.52-10.98-9.46-15.71-19.2-19.64
		c-61.37-24.75-115.67-59.57-156.01-113.24c-22.76-30.27-38.47-63.63-39.54-102.34c-1.67-60.83,31.72-105.66,91.05-118.87
		c21.85-4.86,45.08-6.69,67.39-5.26c17.36,1.12,30.5-1,40.79-15.24c1.68-2.33,4.42-3.9,6.06-6.25
		C369.08,72.01,405.41,73.15,445.5,87c57.12,19.74,105.65,53.27,150.33,92.73c139.78,123.44,223.65,278.38,257.99,460.94
		c1.91,10.16,3.54,20.36,5.3,30.55c0,16.29,0,32.57,0,48.86c-1.22,2.6-2.61,5.13-3.63,7.8c-14.23,37.48-49.94,56.02-86.42,44.84
		c-37.2-11.41-56.57-47.63-45.83-87.06c4.11-15.08,10.46-29.54,14.82-44.57c6.29-21.66,12.92-43.35,16.9-65.47
		c1.68-9.37-3.02-19.89-4.81-29.88c-2.36-0.56-4.72-1.11-7.09-1.67c-3.85,5.1-7.16,10.74-11.63,15.22
		c-85.84,85.97-172.18,171.45-257.52,257.9c-24.52,24.84-53.01,34.36-85.48,25.91c-29.51-7.68-60.32-15.85-86.17-31.2
		C174.72,736.14,67.99,640.96,21.6,493.24C21.6,479.28,21.6,465.32,21.6,451.36z M683.62,379.36
		c-13.01-16.26-25.7-32.79-39.07-48.74c-51-60.81-106.82-116.48-174.6-158.71c-12.57-7.83-26.91-13.99-41.26-17.49
		c-17.94-4.37-26.77,5.53-22.66,23.65c2.15,9.47,5.23,19.66,10.91,27.26c31.23,41.72,63.27,82.85,95.48,123.83
		c2.76,3.51,8.73,6.22,13.28,6.34C581.58,336.94,632.58,354.59,683.62,379.36z M280.71,167.56
		c-73.31-7.54-129.86,50.03-105.14,105.55C210.28,238.27,245.36,203.05,280.71,167.56z"/>
</g>
</svg>
