<?xml version="1.0" encoding="utf-8"?>
<!-- Generator: Adobe Illustrator 23.1.0, SVG Export Plug-In . SVG Version: 6.00 Build 0)  -->
<svg version="1.1" id="Capa_1" xmlns="http://www.w3.org/2000/svg" xmlns:xlink="http://www.w3.org/1999/xlink" x="0px" y="0px"
	 viewBox="0 0 394.7 394.7" style="enable-background:new 0 0 394.7 394.7;" xml:space="preserve">
<style type="text/css">
	.st0{fill:#FF0000;}
</style>
<g>
	<path class="st0" d="M394.6,78.9h-78.9V59.2c0-15.7-6.2-30.8-17.3-41.9C287.3,6.2,272.2,0,256.5,0H138.1
		c-15.7,0-30.8,6.2-41.9,17.3S78.9,43.5,78.9,59.2v19.7H0v39.5h39.5v217.1c0,15.7,6.2,30.8,17.3,41.9c11.1,11.1,26.2,17.3,41.9,17.3
		H296c15.7,0,30.8-6.2,41.9-17.3c11.1-11.1,17.3-26.2,17.3-41.9V118.4h39.5L394.6,78.9z M118.4,59.2c0-5.2,2.1-10.3,5.8-14
		c3.7-3.7,8.7-5.8,14-5.8h118.4c5.2,0,10.3,2.1,14,5.8s5.8,8.7,5.8,14v19.7H118.5L118.4,59.2z M315.7,335.4c0,5.2-2.1,10.3-5.8,14
		c-3.7,3.7-8.7,5.8-14,5.8H98.6c-5.2,0-10.3-2.1-14-5.8s-5.8-8.7-5.8-14v-217h236.8L315.7,335.4z"/>
	<path class="st0" d="M108.5,157.8H148v157.9h-39.5V157.8z"/>
	<path class="st0" d="M246.6,157.8h39.5v157.9h-39.5V157.8z"/>
	<path class="st0" d="M177.6,157.8h39.5v157.9h-39.5V157.8z"/>
</g>
</svg>
